/* XPM */
static char * icon_xpm[] = {
"48 48 573 2",
"  	c None",
". 	c #161246",
"+ 	c #151146",
"@ 	c #171347",
"# 	c #181448",
"$ 	c #191548",
"% 	c #1A1649",
"& 	c #1A164A",
"* 	c #1B174A",
"= 	c #1C184B",
"- 	c #1D184B",
"; 	c #1D194B",
"> 	c #1E1A4C",
", 	c #1F1A4C",
"' 	c #1F1B4D",
") 	c #201C4E",
"! 	c #211D4E",
"~ 	c #221E50",
"{ 	c #221E4F",
"] 	c #221F50",
"^ 	c #242050",
"/ 	c #242152",
"( 	c #262252",
"_ 	c #252252",
": 	c #272353",
"< 	c #272454",
"[ 	c #282554",
"} 	c #282454",
"| 	c #292656",
"1 	c #2A2656",
"2 	c #2A2756",
"3 	c #2B2856",
"4 	c #2C2857",
"5 	c #2C2858",
"6 	c #2D2959",
"7 	c #2E2A58",
"8 	c #2E2B59",
"9 	c #2F2C5A",
"0 	c #302C5B",
"a 	c #312E5C",
"b 	c #322E5C",
"c 	c #161146",
"d 	c #151245",
"e 	c #171346",
"f 	c #181347",
"g 	c #191547",
"h 	c #1A1549",
"i 	c #1C174A",
"j 	c #1D194C",
"k 	c #1E1B4D",
"l 	c #201D4E",
"m 	c #211D4F",
"n 	c #231F50",
"o 	c #232050",
"p 	c #242051",
"q 	c #252152",
"r 	c #272453",
"s 	c #282555",
"t 	c #292555",
"u 	c #2B2657",
"v 	c #2B2756",
"w 	c #2C2958",
"x 	c #2E2A59",
"y 	c #2F2B59",
"z 	c #302D5B",
"A 	c #312D5C",
"B 	c #322F5D",
"C 	c #332F5C",
"D 	c #161145",
"E 	c #151145",
"F 	c #181447",
"G 	c #1B184A",
"H 	c #201B4D",
"I 	c #242151",
"J 	c #252052",
"K 	c #262353",
"L 	c #292454",
"M 	c #2A2655",
"N 	c #2B2757",
"O 	c #2C2856",
"P 	c #2C2957",
"Q 	c #2D2958",
"R 	c #2D2A58",
"S 	c #2F2C59",
"T 	c #2F2B5A",
"U 	c #312E5B",
"V 	c #332F5D",
"W 	c #161347",
"X 	c #181548",
"Y 	c #1C194B",
"Z 	c #201C4D",
"` 	c #211E4F",
" .	c #262253",
"..	c #292554",
"+.	c #2D2A59",
"@.	c #312D5B",
"#.	c #33305D",
"$.	c #34305D",
"%.	c #34315D",
"&.	c #171246",
"*.	c #171447",
"=.	c #191448",
"-.	c #1E1A4D",
";.	c #1F1C4D",
">.	c #252151",
",.	c #252253",
"'.	c #272354",
").	c #302C5A",
"!.	c #34305E",
"~.	c #34315E",
"{.	c #191549",
"].	c #1A1648",
"^.	c #1B1749",
"/.	c #1F1B4C",
"(.	c #2B2857",
"_.	c #2F2C5B",
":.	c #302D5C",
"<.	c #322F5C",
"[.	c #35315E",
"}.	c #35325E",
"|.	c #181348",
"1.	c #1A174A",
"2.	c #1B184B",
"3.	c #1D1A4C",
"4.	c #36325F",
"5.	c #363260",
"6.	c #1C194A",
"7.	c #231F51",
"8.	c #2B2755",
"9.	c #302D5A",
"0.	c #322E5B",
"a.	c #36335F",
"b.	c #37335F",
"c.	c #191649",
"d.	c #1C184A",
"e.	c #1F1C4E",
"f.	c #231E50",
"g.	c #232051",
"h.	c #2A2555",
"i.	c #292655",
"j.	c #2D2857",
"k.	c #37345F",
"l.	c #383360",
"m.	c #282453",
"n.	c #272554",
"o.	c #35315F",
"p.	c #35325F",
"q.	c #363360",
"r.	c #373360",
"s.	c #373461",
"t.	c #383461",
"u.	c #1B174B",
"v.	c #1F1B4E",
"w.	c #292455",
"x.	c #36325E",
"y.	c #393561",
"z.	c #1D1A4B",
"A.	c #241F51",
"B.	c #292556",
"C.	c #2E2B5A",
"D.	c #342F5D",
"E.	c #383561",
"F.	c #383562",
"G.	c #201D4F",
"H.	c #302C59",
"I.	c #332F5E",
"J.	c #373460",
"K.	c #393562",
"L.	c #393661",
"M.	c #3A3662",
"N.	c #2A2556",
"O.	c #34325E",
"P.	c #36315E",
"Q.	c #393662",
"R.	c #3A3762",
"S.	c #1E1A4B",
"T.	c #1E194C",
"U.	c #1F1D4E",
"V.	c #221D4E",
"W.	c #373361",
"X.	c #383560",
"Y.	c #3A3763",
"Z.	c #3B3763",
"`.	c #1E1B4C",
" +	c #231F4F",
".+	c #33305E",
"++	c #373561",
"@+	c #3B3764",
"#+	c #3C3964",
"$+	c #1F1D4D",
"%+	c #3A3663",
"&+	c #3B3864",
"*+	c #201B4E",
"=+	c #2F2B4C",
"-+	c #39344A",
";+	c #3F3A49",
">+	c #413C49",
",+	c #3F394A",
"'+	c #3A354C",
")+	c #322E50",
"!+	c #2A2654",
"~+	c #2B2654",
"{+	c #353150",
"]+	c #373251",
"^+	c #373352",
"/+	c #312E54",
"(+	c #3A3557",
"_+	c #3E3856",
":+	c #3E3957",
"<+	c #3B3759",
"[+	c #35325D",
"}+	c #413D58",
"|+	c #413C59",
"1+	c #413D5A",
"2+	c #423E5A",
"3+	c #433E5A",
"4+	c #433F5A",
"5+	c #44405B",
"6+	c #45415D",
"7+	c #3F3C60",
"8+	c #3B3863",
"9+	c #3C3864",
"0+	c #3D3964",
"a+	c #3D3A65",
"b+	c #221F4F",
"c+	c #7A7137",
"d+	c #B6A926",
"e+	c #CEC020",
"f+	c #D9CA1D",
"g+	c #D5C61E",
"h+	c #CBBC21",
"i+	c #B4A828",
"j+	c #A4982D",
"k+	c #322D53",
"l+	c #AEA12A",
"m+	c #B8AC27",
"n+	c #BBAE26",
"o+	c #9B9031",
"p+	c #302B5B",
"q+	c #3A3657",
"r+	c #ADA12D",
"s+	c #BAAE28",
"t+	c #BBAE27",
"u+	c #887F3C",
"v+	c #35315C",
"w+	c #444058",
"x+	c #C2B424",
"y+	c #BAAE29",
"z+	c #BBAE29",
"A+	c #BDB028",
"B+	c #7C7347",
"C+	c #3D3965",
"D+	c #3D3A66",
"E+	c #9A902E",
"F+	c #D8CA1C",
"G+	c #D8C91C",
"H+	c #A0942E",
"I+	c #D9C91D",
"J+	c #D9C91C",
"K+	c #3B3654",
"L+	c #5B554B",
"M+	c #D8CA1D",
"N+	c #D6C61D",
"O+	c #726B45",
"P+	c #494357",
"Q+	c #D9CA1C",
"R+	c #898040",
"S+	c #3E3A66",
"T+	c #3E3B66",
"U+	c #514A43",
"V+	c #D2C31E",
"W+	c #D8C91D",
"X+	c #B2A528",
"Y+	c #786F39",
"Z+	c #6C633D",
"`+	c #817738",
" @	c #9E932E",
".@	c #BFB224",
"+@	c #4F4A4A",
"@@	c #887E39",
"#@	c #A79C2F",
"$@	c #CABC22",
"%@	c #443F57",
"&@	c #494458",
"*@	c #C6B924",
"=@	c #B5A92B",
"-@	c #B5AA2B",
";@	c #B8AB2B",
">@	c #797147",
",@	c #3E3B67",
"'@	c #6F663B",
")@	c #D6C71D",
"!@	c #BEB124",
"~@	c #302C50",
"{@	c #343051",
"]@	c #5C5545",
"^@	c #2D2957",
"/@	c #C0B225",
"(@	c #C3B424",
"_@	c #322E5A",
":@	c #3D3857",
"<@	c #A39832",
"[@	c #4A4558",
"}@	c #847C41",
"|@	c #3C3965",
"1@	c #3D3B66",
"2@	c #3F3B66",
"3@	c #3F3C67",
"4@	c #403C67",
"5@	c #766D39",
"6@	c #CFC11E",
"7@	c #3E394B",
"8@	c #2A2757",
"9@	c #6F6741",
"0@	c #D8C81C",
"a@	c #D1C31F",
"b@	c #5D5749",
"c@	c #847B3C",
"d@	c #565050",
"e@	c #4A4459",
"f@	c #897F40",
"g@	c #3A3863",
"h@	c #3E3B65",
"i@	c #413D67",
"j@	c #5D5541",
"k@	c #D4C51E",
"l@	c #A99D2B",
"m@	c #7D7439",
"n@	c #5A5345",
"o@	c #423E4D",
"p@	c #2D2955",
"q@	c #D0C120",
"r@	c #8B8239",
"s@	c #C3B524",
"t@	c #C2B525",
"u@	c #4A4559",
"v@	c #9D9436",
"w@	c #625B51",
"x@	c #655E51",
"y@	c #655F51",
"z@	c #645D53",
"A@	c #464161",
"B@	c #403D67",
"C@	c #403D68",
"D@	c #272352",
"E@	c #ACA129",
"F@	c #C7B922",
"G@	c #A5992E",
"H@	c #433D4F",
"I@	c #2C2A58",
"J@	c #312F58",
"K@	c #9F9432",
"L@	c #BAAD28",
"M@	c #3B3658",
"N@	c #5D564C",
"O@	c #D1C11F",
"P@	c #726A46",
"Q@	c #4B4759",
"R@	c #D8C81D",
"S@	c #D5C71E",
"T@	c #625B56",
"U@	c #413E68",
"V@	c #423F69",
"W@	c #242052",
"X@	c #877C35",
"Y@	c #322F57",
"Z@	c #6F6843",
"`@	c #524C4F",
" #	c #8A803B",
".#	c #CEC021",
"+#	c #444059",
"@#	c #4C4759",
"##	c #D0C221",
"$#	c #605B56",
"%#	c #413E69",
"&#	c #2F2A53",
"*#	c #676040",
"=#	c #938833",
"-#	c #B0A32A",
";#	c #CEBF20",
">#	c #938934",
",#	c #403B55",
"'#	c #CBBD22",
")#	c #9B9033",
"!#	c #36335B",
"~#	c #B8AB29",
"{#	c #A19533",
"]#	c #3A375E",
"^#	c #A29735",
"/#	c #6B644F",
"(#	c #6D664F",
"_#	c #6D664E",
":#	c #6E664F",
"<#	c #6B6551",
"[#	c #4A4662",
"}#	c #403E68",
"|#	c #423D68",
"1#	c #272253",
"2#	c #302C55",
"3#	c #44404F",
"4#	c #C4B722",
"5#	c #B9AC28",
"6#	c #A09532",
"7#	c #554F50",
"8#	c #D5C71D",
"9#	c #726B47",
"0#	c #4D495A",
"a#	c #898041",
"b#	c #3E3966",
"c#	c #3E3C66",
"d#	c #413D68",
"e#	c #43406A",
"f#	c #43416A",
"g#	c #282354",
"h#	c #47424A",
"i#	c #342F51",
"j#	c #9C9132",
"k#	c #ADA12C",
"l#	c #534E50",
"m#	c #CCBE22",
"n#	c #46415A",
"o#	c #383662",
"p#	c #393763",
"q#	c #4E495A",
"r#	c #8B8141",
"s#	c #433F6A",
"t#	c #44406A",
"u#	c #44416A",
"v#	c #867C37",
"w#	c #9B9030",
"x#	c #686041",
"y#	c #585247",
"z#	c #4C464C",
"A#	c #4D474C",
"B#	c #6B6342",
"C#	c #867D3A",
"D#	c #33305C",
"E#	c #C1B326",
"F#	c #A49933",
"G#	c #4E495B",
"H#	c #A79C34",
"I#	c #756E4B",
"J#	c #776F4B",
"K#	c #77704B",
"L#	c #77704C",
"M#	c #78714C",
"N#	c #6C6552",
"O#	c #444167",
"P#	c #827838",
"Q#	c #D2C41F",
"R#	c #C9BB20",
"S#	c #CABD21",
"T#	c #CCBF20",
"U#	c #383459",
"V#	c #706846",
"W#	c #554F55",
"X#	c #3B3963",
"Y#	c #4F4A5C",
"Z#	c #BBAE2C",
"`#	c #4C4765",
" $	c #45416B",
".$	c #46426C",
"+$	c #696041",
"@$	c #CBBD21",
"#$	c #D3C41E",
"$$	c #D6C71C",
"%$	c #D7C81D",
"&$	c #D7C91D",
"*$	c #D4C61E",
"=$	c #C1B325",
"-$	c #4C4650",
";$	c #423E58",
">$	c #D6C71E",
",$	c #3C3863",
"'$	c #4E4A5C",
")$	c #D4C61F",
"!$	c #B4A82E",
"~$	c #4C4766",
"{$	c #45426B",
"]$	c #45426C",
"^$	c #46436C",
"/$	c #4B454C",
"($	c #6D6442",
"_$	c #7B733D",
":$	c #897F38",
"<$	c #897F39",
"[$	c #77703F",
"}$	c #635C47",
"|$	c #37345E",
"1$	c #555053",
"2$	c #60594E",
"3$	c #615A4F",
"4$	c #625C4F",
"5$	c #4E4A57",
"6$	c #423E63",
"7$	c #676152",
"8$	c #655F53",
"9$	c #666054",
"0$	c #676054",
"a$	c #686254",
"b$	c #686255",
"c$	c #686256",
"d$	c #696256",
"e$	c #625C5A",
"f$	c #454269",
"g$	c #46446D",
"h$	c #2E2C5A",
"i$	c #413C68",
"j$	c #42406A",
"k$	c #444069",
"l$	c #44416B",
"m$	c #47436D",
"n$	c #47446D",
"o$	c #383460",
"p$	c #46426D",
"q$	c #48456E",
"r$	c #34315F",
"s$	c #3F3B67",
"t$	c #48456D",
"u$	c #35335F",
"v$	c #393762",
"w$	c #3F3D67",
"x$	c #423E69",
"y$	c #434069",
"z$	c #49456D",
"A$	c #49466E",
"B$	c #49466F",
"C$	c #3C3963",
"D$	c #46436B",
"E$	c #48446D",
"F$	c #48466E",
"G$	c #4A476F",
"H$	c #423F6A",
"I$	c #3F3B65",
"J$	c #3F3C66",
"K$	c #47436C",
"L$	c #49456E",
"M$	c #4A4770",
"N$	c #4B4870",
"O$	c #3E3A65",
"P$	c #44406B",
"Q$	c #46436D",
"R$	c #48446E",
"S$	c #4C4871",
"T$	c #423F68",
"U$	c #4C4970",
"V$	c #4C4971",
"W$	c #4B476F",
"X$	c #4D4A72",
"Y$	c #4A466F",
"Z$	c #4D4971",
"`$	c #383661",
" %	c #3B3964",
".%	c #423E68",
"+%	c #46426B",
"@%	c #4B4970",
"#%	c #4C4A71",
"$%	c #4D4B72",
"%%	c #4E4B73",
"&%	c #3B3762",
"*%	c #4E4B72",
"=%	c #4F4B73",
"-%	c #4F4C73",
";%	c #46446C",
">%	c #49476F",
",%	c #4A486F",
"'%	c #4D4A71",
")%	c #4E4A72",
"!%	c #504C74",
"~%	c #4A476E",
"{%	c #4C4870",
"]%	c #504D73",
"^%	c #504D74",
". . + . @ @ # # $ % & * = - ; > , ' ) ) ! ~ { ] ^ ^ / ( _ : < [ } | 1 2 3 4 5 6 7 8 9 0 0 a b b ",
". c d e e f g $ h * * i - j j k ' ' l m m ] n o p p q ( : r } s t 1 u v 4 w 6 x 8 y 0 z A a B C ",
"D E . e F F $ $ % * G = j > k k H ) ! m { ] o I J q ( K : } L t M 1 N O P Q R 8 S T z A U b V V ",
". W @ # X $ % & * = Y j > > ' ) Z ! ` ] n p p / _  .K < } ..| M 1 N 4 P +.x 8 9 0 z @.b b #.$.%.",
"&.@ *.=.$ h * * * = j j -.' ;.) l m ~ n n p >.,.( : '.s s t 1 v v 4 w Q +.8 T ).z A a b B !.!.~.",
"@ F # {.].% ^.* = ; > > /.;.) m m ~ ] o p >.q (  .'.< t t | 1 v (.4 w R x T _.z :.A <.C V ~.[.}.",
"|.=.$ % 1.* 2.= ; 3.> ' ) l m { ] n p p / _  .K } } s M 2 v (.5 4 6 +.8 9 _.0 a b <.#.!.~.[.4.5.",
"# {.% * ^.G 6.; j -.' ;.) ! ! ~ ] 7.^ >.q  .: '.[ ..t M 8.3 4 P Q x x y ).9.@.0.b V !.%.!.4.a.b.",
"$ c.% ^.i d.; ; 3.' ' e.! m { f.g.^ >.q  .: : } [ h.i.v v (.j.Q R 8 y 9 0 @.b b <.#.~.[.[.a.k.l.",
"% * * = ; j > -.H ) ) ! { ] n p p / (  . .m.} n.i.1 M (.4 Q +.x 8 9 _.z U b b V $.$.o.p.q.r.s.t.",
"% * u.= j 3.' ' v.) m ` ~ ] n p >.q ,.K : } w.t | 1 v (.4 Q 7 8 y 0 ).@.b <.C $.!.~.x.a.a.s.s.y.",
"* d.d.; z.> ' e.Z ! m { ] n A./ q ( : : } s B.i.2 v N P Q R x C.9 z z @.b C D.~.[.p.4.a.r.E.F.y.",
"= = j > -.' ) l G.` ~ ] p p >.( ,.K < } s M 1 v 3 4 P 6 x x 9 H.0 U a B #.I.~.p.[.4.J.s.E.K.L.M.",
"; ; j k ' ;.) m m { n o p / q ,.K '.} s | N.1 v 4 5 Q x x y 0 z z b <.B $.~.O.P.4.r.s.t.E.Q.R.R.",
"j S.T.-.' U.V.m { ] n p p q (  .: } t | i.v v (.P Q R 8 y 9 z :.U <.<.#.!.}.o.4.q.W.X.y.y.Y.Y.Z.",
"> `.' ) ) m { ]  +p p / ( ,.K m.} s h.M v N 4 Q R x x 9 0 0 a 0.<.B .+%.}.p.a.r.s.++y.Q.Q.Z.@+#+",
"k ' ' $+l m ~ ] n I q >. .K '.} ..t 1 v v 4 w Q x 8 y ).z A U <.V #.%.O.p.a.a.J.t.E.Q.%+R.&+&+#+",
"' *+) ! m { n =+-+;+>+,+'+)+!+s ~+{+]+^+/+Q Q +.x S T ).(+_+:+<+I.[+}+|+1+2+3+4+5+5+6+7+8+9+0+a+",
"e.Z ! ` ~ b+c+d+e+f+f+g+h+i+j+M k+l+m+n+o+R 7 8 9 p+z q+r+s+t+u+v+w+x+y+z+z+z+z+z+z+A+B+9+C+a+D+",
") ! m ] f.E+F+G+f+f+f+F+G+f+f+1 v H+I+f+J+K+x 8 0 0 A L+f+M+N+O+~.P+G+M+M+M+M+M+M+M+Q+R+#+a+S+T+",
"! m ~ n U+V+W+f+X+Y+Z+`+ @.@G+2 v +@G+f+f+@@y 9 z A U #@f+f+$@%@o.&@f+f+f+*@=@=@-@-@;@>@C+a+T+,@",
"{ ] ] g.'@)@G+!@~@'.} ..B.{@]@(.4 ^@/@Q+M+(@_@9.U b :@I+Q+M+<@p.a.[@f+f+f+}@%+8+&+#+|@a+1@2@3@4@",
"~ n n p 5@Q+f+6@7@} w.t 1 v 8@4 5 Q 9@M+0@a@b@@.a <.c@I+W+W+d@4.a.e@f+f+W+f@g@@+9+#+a+h@S+3@4@i@",
"] o ^ I j@k@W+f+G+l@m@n@o@p@(.P Q R K+q@f+f+r@U b <.s@F+Q+t@a.a.r.u@f+f+f+v@w@x@y@y@z@A@2@4@B@C@",
"7.p q ,.D@E@J+W+f+W+f+Q+F@G@H@I@+.x J@K@M+f+L@M@#.N@O@W+f+P@r.J.t.Q@f+f+R@f+M+f+f+f+S@T@B@C@U@V@",
"p W@_ ( : '.X@f+f+f+f+f+f+f+W+Y@C.y 9 Z@g+f+f+`@!. #M+f+.#+#s.s.F.@#f+f+f+f+f+f+f+f+##$#B@U@%#V@",
"/ >.( K : '.[ &#*#=#-#;#G+W+F+>#C.T 9.,#'#W+f+)#!#~#f+f+{#]#t.E.y.@#f+f+F+^#/#(#_#:#<#[#}#|#V@V@",
"_  .1#< } w.i.1 2 3 2#3#4#W+G+5#0 9.A a 6#M+f+f+7#F+Q+8#9#E.K.Q.M.0#f+f+f+a#b#c#3@3@d#U@%#V@e#f#",
" .K '.g#h#i#8.1 v 5 4 Q j#Q+M+k#z z b b l#f+f+f+m#f+f+h+n#E.o#p#R.q#f+f+f+r#T+3@3@B@U@%#V@s#t#u#",
"K '.r t v#f+w#x#y#z#A#B#g+f+f+C#z U <.<.D#E#f+W+Q+W+f+F#E.K.Y.Z.Y.G#f+f+f+H#I#J#K#L#M#N#O#e#u#u#",
"< } s t P#f+f+f+Q#R#S#f+f+J+T#U#b b V .+~.V#f+W+f+W+I+W#M.M.Y.&+X#Y#f+f+W+f+f+f+f+f+Q+Z#`#u# $.$",
"} ..t 1 +$@$#$$$%$&$W+%$*$=$-$a <.C $.$.~.;$'#g+k@>$A+Q.%+R.9+,$0+'$J+)$)$)$)$)$)$)$g+!$~${$]$^$",
"[ t i.2 v N /$($_$:$<$[$}$U @.B B #.~.~.}.|$1$2$3$4$5$M.Z.8+#+0+#+6$7$8$9$0$0$a$b$c$d$e$f$]$^$g$",
"| 1 2 (.4 w +.7 x h$9 9.U b b D##.%.o.}.a.q.t.E.y.Q.%+Z.8+&+|@C+S+2@3@3@i$U@V@s#j$k$l$ $.$^$m$n$",
"M 1 v 5 4 Q x 8 y 9 0 z a <.V $.$.~.4.4.q.o$s.E.Q.R.R.&+&+|@a+D+S+3@4@B@d#V@V@V@e#t#{$]$p$n$n$q$",
"1 v (.Q Q +.x y 9 ).A U b B .+~.r$[.a.a.r.E.K.y.M.R.Z.#+#+0+a+T+s$3@B@d#U@V@V@e#u#l${$.$^$n$t$q$",
"(.5 4 7 x 8 T ).9.a 0.<.D#$.!.r$}.u$r.s.++y.Q.v$Z.&+#+C+a+S+s$3@w$}#U@x$V@y$t#u#{$]$^$n$n$z$A$B$",
"4 5 w +.8 T 9 0 z U b C V ~.o.}.a.q.s.o$E.Q.Q.R.&+C$#+a+D+h@3@B@B@U@%#x$e#e#t#{${$D$n$E$q$F$B$G$",
"w 6 +.x y ).).@.@.<.C $.!.r$}.4.a.J.E.E.L.M.Y.Z.&+#+C+S+T+2@4@B@B@V@V@H$f#u#l$]$^$^$n$t$q$A$G$G$",
"+.7 8 C.9 0 U b b C #.~.p.}.a.r.s.t.L.Q.M.Y.&+9+C+a+D+I$J$B@C@U@x$V@j$e#l$ ${$K$n$n$z$L$B$G$M$N$",
"7 x y 9 ).@.a <.<.$.%.~.p.4.r.s.t.E.Q.Y.Y.&+&+#+a+O$T+J$3@B@d#%#x$e#e#P${$.$Q$n$n$R$L$A$G$N$N$S$",
"8 8 T z z U b <.V !.~.}.q.b.l.t.E.Q.Q.Y.Z.C$#+0+h@2@T+4@B@C@x$T$V@t#u#l${$^$^$n$t$q$A$G$M$N$U$V$",
"T ).9.@.b B D##.%.o.p.5.r.W.t.Q.Q.M.8+&+9+C+a+S+2@3@w$d#U@x$V@e#t#l$ $.$K$m$n$q$L$A$W$N$N$V$V$X$",
"9 z :.0.b B D.$.[.x.4.r.s.E.t.M.%+R.9+9+#+a+D+T+J$4@B@U@U@V@e#e#l${$]$^$g$n$t$F$B$Y$W$N$U$Z$X$X$",
"0 A U <.B .+!.~.[.a.b.l.X.`$y.%+R.8+ %#+0+S+h@2@4@B@d#.%T$V@t#u#l$+%^$^$E$t$t$B$G$M$N$@%#%X$$%%%",
"A 0.b B .+%.o.}.4.J.t.t.y.Q.R.&%8+9+0+a+T+T+J$3@d#U@U@H$e#y$l${${$^$n$n$q$L$B$G$N$N$V$Z$X$*%=%-%",
"b <.<..+!.~.4.4.a.J.E.E.Q.M.R.8+&+|@a+O$T+3@3@4@U@.%T$e#e#u#{$]$^$;%n$t$A$B$>%,%N$S$#%'%)%*%-%!%",
"<.V #.~.r$}.a.b.r.t.K.y.Y.R.Z.9+#+C+S+T+2@B@B@C@%#x$V@e#u#l$.$^$^$n$E$q$A$~%G$N${%V$X$*%=%-%]%^%"};
