/* XPM */
static char * window_img_64_64_xpm[] = {
"64 64 594 2",
"  	c None",
". 	c #161246",
"+ 	c #151145",
"@ 	c #171246",
"# 	c #161347",
"$ 	c #171347",
"% 	c #181447",
"& 	c #171448",
"* 	c #191448",
"= 	c #1A1648",
"- 	c #1A1649",
"; 	c #1A1749",
"> 	c #1B1749",
", 	c #1C184A",
"' 	c #1C194A",
") 	c #1D194B",
"! 	c #1D194C",
"~ 	c #1E1A4C",
"{ 	c #1E1B4C",
"] 	c #1F1B4D",
"^ 	c #1F1C4D",
"/ 	c #201C4E",
"( 	c #211D4F",
"_ 	c #221E4F",
": 	c #221E51",
"< 	c #232050",
"[ 	c #242051",
"} 	c #252252",
"| 	c #252152",
"1 	c #262253",
"2 	c #262353",
"3 	c #272354",
"4 	c #272454",
"5 	c #292555",
"6 	c #282555",
"7 	c #292655",
"8 	c #2A2655",
"9 	c #2A2756",
"0 	c #2B2757",
"a 	c #2B2857",
"b 	c #2C2857",
"c 	c #2D2958",
"d 	c #2E2A58",
"e 	c #2D2A58",
"f 	c #2F2B59",
"g 	c #2F2C5A",
"h 	c #312C5A",
"i 	c #302D5B",
"j 	c #312E5B",
"k 	c #322E5C",
"l 	c #171346",
"m 	c #171447",
"n 	c #191548",
"o 	c #191649",
"p 	c #1B174A",
"q 	c #1C184B",
"r 	c #1D1A4C",
"s 	c #201B4D",
"t 	c #201D4E",
"u 	c #211E4E",
"v 	c #221E50",
"w 	c #231F50",
"x 	c #242050",
"y 	c #262152",
"z 	c #272353",
"A 	c #282454",
"B 	c #282455",
"C 	c #2A2656",
"D 	c #2D2857",
"E 	c #2D2A59",
"F 	c #2E2A59",
"G 	c #302C5A",
"H 	c #302C5B",
"I 	c #312D5C",
"J 	c #332F5D",
"K 	c #161146",
"L 	c #171247",
"M 	c #181448",
"N 	c #1A1549",
"O 	c #1A174A",
"P 	c #1B174B",
"Q 	c #1E194C",
"R 	c #211D4E",
"S 	c #211E4F",
"T 	c #221F4F",
"U 	c #252151",
"V 	c #242151",
"W 	c #262352",
"X 	c #2B2756",
"Y 	c #2C2858",
"Z 	c #2C2957",
"` 	c #2F2B5A",
" .	c #322E5D",
"..	c #332F5C",
"+.	c #33305D",
"@.	c #161245",
"#.	c #161346",
"$.	c #191549",
"%.	c #1A164A",
"&.	c #1B184A",
"*.	c #1D184B",
"=.	c #1F1C4E",
"-.	c #221D4F",
";.	c #221F50",
">.	c #282554",
",.	c #2C2958",
"'.	c #2E2B59",
").	c #312D5B",
"!.	c #312E5C",
"~.	c #322F5C",
"{.	c #34305E",
"].	c #181347",
"^.	c #1B184B",
"/.	c #1C194B",
"(.	c #1F1B4E",
"_.	c #201B4E",
":.	c #231E4F",
"<.	c #241F51",
"[.	c #252251",
"}.	c #282655",
"|.	c #2A2757",
"1.	c #2D2959",
"2.	c #2E2B5A",
"3.	c #302D5A",
"4.	c #312C5B",
"5.	c #322F5D",
"6.	c #34315E",
"7.	c #1B1649",
"8.	c #1E1B4D",
"9.	c #232051",
"0.	c #272252",
"a.	c #2B2656",
"b.	c #2F2C5B",
"c.	c #34305D",
"d.	c #181548",
"e.	c #1D1A4B",
"f.	c #211C4F",
"g.	c #221D50",
"h.	c #262252",
"i.	c #2A2555",
"j.	c #292656",
"k.	c #2B2856",
"l.	c #2D2957",
"m.	c #33305E",
"n.	c #33315D",
"o.	c #35305E",
"p.	c #35315E",
"q.	c #1E1A4D",
"r.	c #1F1A4D",
"s.	c #272254",
"t.	c #292454",
"u.	c #292554",
"v.	c #302E5B",
"w.	c #322E5B",
"x.	c #342F5D",
"y.	c #35325F",
"z.	c #35325E",
"A.	c #1B164A",
"B.	c #1C1A4C",
"C.	c #1E194B",
"D.	c #201D4F",
"E.	c #282353",
"F.	c #2E2B58",
"G.	c #35315D",
"H.	c #36335F",
"I.	c #191648",
"J.	c #1C174A",
"K.	c #201C4D",
"L.	c #252050",
"M.	c #242052",
"N.	c #282453",
"O.	c #292556",
"P.	c #2F2A59",
"Q.	c #2E2C59",
"R.	c #363360",
"S.	c #1A1548",
"T.	c #1F1B4C",
"U.	c #231E50",
"V.	c #231F51",
"W.	c #272253",
"X.	c #2F2D5A",
"Y.	c #34315F",
"Z.	c #363260",
"`.	c #373360",
" +	c #1D184C",
".+	c #231F4F",
"++	c #2A2755",
"@+	c #2B2858",
"#+	c #2F2C59",
"$+	c #312F5D",
"%+	c #353260",
"&+	c #383461",
"*+	c #2B2755",
"=+	c #322F5B",
"-+	c #33305C",
";+	c #33315E",
">+	c #373461",
",+	c #373561",
"'+	c #252051",
")+	c #242152",
"!+	c #252253",
"~+	c #272453",
"{+	c #302B5A",
"]+	c #36325F",
"^+	c #383561",
"/+	c #1F1A4C",
"(+	c #211C4D",
"_+	c #232151",
":+	c #262354",
"<+	c #2B2657",
"[+	c #2E2A5A",
"}+	c #36315E",
"|+	c #373460",
"1+	c #383460",
"2+	c #393662",
"3+	c #252052",
"4+	c #272352",
"5+	c #282354",
"6+	c #292755",
"7+	c #302E5C",
"8+	c #34315D",
"9+	c #393561",
"0+	c #2E2959",
"a+	c #35315F",
"b+	c #383562",
"c+	c #393661",
"d+	c #393562",
"e+	c #3B3763",
"f+	c #242251",
"g+	c #2C2757",
"h+	c #332E5D",
"i+	c #35335F",
"j+	c #373560",
"k+	c #3A3662",
"l+	c #3A3663",
"m+	c #3A3763",
"n+	c #252153",
"o+	c #3A3762",
"p+	c #3B3864",
"q+	c #211C4E",
"r+	c #241F50",
"s+	c #232052",
"t+	c #2F2B5B",
"u+	c #393762",
"v+	c #3B3863",
"w+	c #3C3864",
"x+	c #292455",
"y+	c #312D5A",
"z+	c #37335F",
"A+	c #363460",
"B+	c #383360",
"C+	c #383661",
"D+	c #3C3863",
"E+	c #3C3964",
"F+	c #222050",
"G+	c #292654",
"H+	c #3D3964",
"I+	c #4A4444",
"J+	c #9D922E",
"K+	c #B6A926",
"L+	c #CFC01F",
"M+	c #D9CA1D",
"N+	c #D1C31D",
"O+	c #C3B622",
"P+	c #B5A827",
"Q+	c #918733",
"R+	c #6A623E",
"S+	c #423D4B",
"T+	c #312D52",
"U+	c #817738",
"V+	c #81783A",
"W+	c #817839",
"X+	c #7C723B",
"Y+	c #847B3C",
"Z+	c #857B3C",
"`+	c #857C3C",
" @	c #7F763E",
".@	c #776F43",
"+@	c #867D3D",
"@@	c #867D3E",
"#@	c #877E3E",
"$@	c #887F3F",
"%@	c #887E3F",
"&@	c #89803F",
"*@	c #5D5753",
"=@	c #3D3A65",
"-@	c #2F2A4C",
";@	c #B3A727",
">@	c #D8C91C",
",@	c #D8C91D",
"'@	c #D9CA1C",
")@	c #2C2954",
"!@	c #D4C61E",
"~@	c #918637",
"{@	c #D8CA1C",
"]@	c #6E6645",
"^@	c #BBAE28",
"/@	c #807843",
"(@	c #3D3965",
"_@	c #3E3A66",
":@	c #211E50",
"<@	c #BAAE25",
"[@	c #D8CA1D",
"}@	c #928834",
"|@	c #5D5747",
"1@	c #D4C41E",
"2@	c #3C385A",
"3@	c #817944",
"4@	c #3C3965",
"5@	c #3E3B65",
"6@	c #756C39",
"7@	c #9E932E",
"8@	c #887F34",
"9@	c #897F35",
"0@	c #A5992C",
"a@	c #C0B224",
"b@	c #373352",
"c@	c #CABB21",
"d@	c #3C3757",
"e@	c #BEB127",
"f@	c #BBAE29",
"g@	c #857C42",
"h@	c #3D3A64",
"i@	c #3F3B67",
"j@	c #A69A2A",
"k@	c #C9BB20",
"l@	c #71673D",
"m@	c #BBAE26",
"n@	c #D7C81D",
"o@	c #ADA12D",
"p@	c #514C52",
"q@	c #36315F",
"r@	c #5D5752",
"s@	c #3E3A65",
"t@	c #3E3B66",
"u@	c #3F3B66",
"v@	c #D0C21F",
"w@	c #9E922E",
"x@	c #696143",
"y@	c #D9C91D",
"z@	c #7F753C",
"A@	c #D4C51E",
"B@	c #D7C91D",
"C@	c #38345C",
"D@	c #645E4F",
"E@	c #3E3C66",
"F@	c #3F3C66",
"G@	c #403C67",
"H@	c #D3C51E",
"I@	c #C5B821",
"J@	c #2A2556",
"K@	c #343055",
"L@	c #D5C51E",
"M@	c #504A51",
"N@	c #D9C91C",
"O@	c #988E35",
"P@	c #645F4F",
"Q@	c #3F3C67",
"R@	c #403D68",
"S@	c #B0A329",
"T@	c #9C912F",
"U@	c #6A623F",
"V@	c #433E4B",
"W@	c #BEB026",
"X@	c #343059",
"Y@	c #C2B424",
"Z@	c #403C59",
"`@	c #BBAF29",
" #	c #5D5853",
".#	c #3B3964",
"+#	c #403D67",
"@#	c #413D68",
"##	c #635B40",
"$#	c #A4992D",
"%#	c #696141",
"&#	c #4B454E",
"*#	c #9F9432",
"=#	c #D7C81C",
"-#	c #3E3B67",
";#	c #413D69",
">#	c #AA9E2A",
",#	c #D0C11E",
"'#	c #544E4A",
")#	c #2C2A58",
"!#	c #6C6546",
"~#	c #706846",
"{#	c #36345F",
"]#	c #BCAF29",
"^#	c #413E69",
"/#	c #423E68",
"(#	c #262153",
"_#	c #70683C",
":#	c #D8C81D",
"<#	c #393453",
"[#	c #988D34",
"}#	c #464155",
"|#	c #D0C120",
"1#	c #3B385D",
"2#	c #413E68",
"3#	c #423F69",
"4#	c #554F46",
"5#	c #938932",
"6#	c #C4B522",
"7#	c #C1B423",
"8#	c #3A3557",
"9#	c #BAAD28",
"0#	c #C1B326",
"a#	c #3A3561",
"b#	c #A09436",
"c#	c #8A8140",
"d#	c #8A8141",
"e#	c #8B8241",
"f#	c #8B8242",
"g#	c #90873F",
"h#	c #413F69",
"i#	c #615A44",
"j#	c #AB9F2C",
"k#	c #CFC020",
"l#	c #8A813B",
"m#	c #514B54",
"n#	c #666050",
"o#	c #403E68",
"p#	c #423E69",
"q#	c #423F68",
"r#	c #433F69",
"s#	c #43406A",
"t#	c #9E9231",
"u#	c #6D6544",
"v#	c #5E574D",
"w#	c #3A365E",
"x#	c #676051",
"y#	c #434069",
"z#	c #44406A",
"A#	c #605942",
"B#	c #625B46",
"C#	c #312F5C",
"D#	c #35315B",
"E#	c #CDBF21",
"F#	c #9C9236",
"G#	c #3B3762",
"H#	c #676151",
"I#	c #44416A",
"J#	c #262453",
"K#	c #7E7539",
"L#	c #302C53",
"M#	c #2C2856",
"N#	c #C1B425",
"O#	c #C9BB21",
"P#	c #302D5C",
"Q#	c #C2B425",
"R#	c #3F3B5D",
"S#	c #615B55",
"T#	c #413D67",
"U#	c #413F68",
"V#	c #433F6A",
"W#	c #44416B",
"X#	c #CDBE20",
"Y#	c #B0A32A",
"Z#	c #938934",
"`#	c #887E38",
" $	c #9C9231",
".$	c #AB9F2D",
"+$	c #4E4853",
"@$	c #D7C91C",
"#$	c #3A3864",
"$$	c #424069",
"%$	c #43416A",
"&$	c #45426B",
"*$	c #D1C21F",
"=$	c #746C47",
"-$	c #393763",
";$	c #3B3764",
">$	c #44426B",
",$	c #46426C",
"'$	c #C1B424",
")$	c #C1B325",
"!$	c #484252",
"~$	c #9E9234",
"{$	c #3A3660",
"]$	c #46426B",
"^$	c #2B2855",
"/$	c #615A45",
"($	c #958933",
"_$	c #AFA32A",
":$	c #D3C41E",
"<$	c #CCBD20",
"[$	c #B5A929",
"}$	c #A09530",
"|$	c #5C554A",
"1$	c #3A365D",
"2$	c #7D7447",
"3$	c #8C8242",
"4$	c #8C8342",
"5$	c #8C8442",
"6$	c #8D8443",
"7$	c #938940",
"8$	c #47446D",
"9$	c #322D5C",
"0$	c #3B3663",
"a$	c #3C3A64",
"b$	c #403C66",
"c$	c #47436C",
"d$	c #45426C",
"e$	c #45436B",
"f$	c #46436C",
"g$	c #47446C",
"h$	c #34305C",
"i$	c #393663",
"j$	c #3F3D67",
"k$	c #47436D",
"l$	c #46446C",
"m$	c #48446D",
"n$	c #3A3661",
"o$	c #413E67",
"p$	c #45416B",
"q$	c #48456E",
"r$	c #353360",
"s$	c #43406B",
"t$	c #44416C",
"u$	c #48466E",
"v$	c #48456D",
"w$	c #2D2B58",
"x$	c #3E3C67",
"y$	c #44406B",
"z$	c #44426A",
"A$	c #49466E",
"B$	c #46436D",
"C$	c #49466F",
"D$	c #403C68",
"E$	c #42406A",
"F$	c #45406B",
"G$	c #4A466F",
"H$	c #4A476F",
"I$	c #47456D",
"J$	c #4A466E",
"K$	c #4B476F",
"L$	c #3E3965",
"M$	c #45416A",
"N$	c #49476F",
"O$	c #4B4970",
"P$	c #34325F",
"Q$	c #383560",
"R$	c #3C3865",
"S$	c #423F6A",
"T$	c #45436C",
"U$	c #4A4770",
"V$	c #4B4870",
"W$	c #4B4871",
"X$	c #32305C",
"Y$	c #3A3863",
"Z$	c #403E67",
"`$	c #4B486F",
" %	c #4C4971",
".%	c #3D3B65",
"+%	c #4B4770",
"@%	c #4D4971",
"#%	c #3D3A66",
"$%	c #48446E",
"%%	c #4C4870",
"&%	c #4C4970",
"*%	c #4C4A72",
"=%	c #4D4A72",
"-%	c #37325F",
";%	c #47446E",
">%	c #4E4B72",
",%	c #32305D",
"'%	c #49456D",
")%	c #49476E",
"!%	c #4A4870",
"~%	c #4E4A72",
"{%	c #4A486F",
"]%	c #4B4971",
"^%	c #4D4972",
"/%	c #4D4B72",
"(%	c #4F4B73",
"_%	c #3C3764",
":%	c #3D3B66",
"<%	c #47456E",
"[%	c #4A476E",
"}%	c #4C4871",
"|%	c #4E4B73",
"1%	c #4F4C73",
"2%	c #3C3A65",
"3%	c #4C4A70",
"4%	c #4E4C73",
"5%	c #504C73",
"6%	c #45416C",
"7%	c #4F4C74",
"8%	c #36325E",
"9%	c #373260",
"0%	c #49456E",
"a%	c #504D73",
"b%	c #4F4D73",
"c%	c #504D74",
". . . . + @ # $ % & % * = - ; > , , ' ) ! ~ { ] ^ / / ( ( _ _ : < [ [ [ } | 1 2 3 4 4 5 6 7 8 9 0 a a b c d e f f g g h i j k k ",
". . . + . . l m % n n o - - p p , q ) ! r ~ ] s ^ t ( u _ v w w x [ | | y 2 2 z 4 A B 5 7 C 9 9 b b D e c E F f g G H i I k k J ",
". . K . L l $ M M n N - > O P q q ) Q r ~ ] ] s t t R S T w w < [ U V y 1 W z A A 6 5 7 C X X a Y Z c e d F ` ` G H j j k  ...+.",
". @.. #.$ % M M $.- - %.p P &.*.) ! ~ ~ ] ^ / =.R ( -._ _ ;.x [ V | y 1 z 3 A >.A 5 7 8 C X b b b ,.e F '.'.` G ).i I !.~...+.{.",
"+ . l l ].& * n o $.O p &.^./.) r ~ ~ ] (._./ ( ( _ :.;.< <.[ [ [.} 1 z 3 A A 6 }.7 C C |.0 b Y c 1.F F 2.` G 3.4.j !.~.5.J +.6.",
"K @ $ $ % * n n - 7.p , &./.*.r r 8.8.] / / R u _ v ;.w 9.x V | } 0.2 2 4 A 6 5 5 C a.X a a Y Z c d '.` ` b.G ).j k  .~.+.c.6.6.",
"# l ].% d.d.N - O p p &.q /.e.~ { ] ] =./ f.u g._ w w 9.V V | h.1 2 z 3 A >.5 i.j.9 k.a b b l.1.E '.f ` b.H ).j !.~...J m.n.o.p.",
"$ $ % M n $.- %.> &.P ) ) r ~ q.r.s =./ R R _ _ ;.9.[ V U U | 0.2 s.4 A t.u.C C X X 0 a Y c 1.F f '.g G G i v.w.k 5.+.x.6.p.y.z.",
"m % d.n $.- ; A.&.q ' /.B.C.8.r.^ =./ D.S _ T ;.w <.[ V } } 2 z 3 E.A t.u.8 8 C |.a Y b ,.1.F.F 2.g G 3.v.).w.~...J +.n.G.z.y.H.",
"% n n I.- - p J.^././.r ~ ~ 8.] / K.R ( S _ v [ <.L.M.} h.1 z 3 N.A u.7 O.9 9 |.b b c c e F P.Q.f g 3.i w.!.~...+.{.c.6.z.y.H.R.",
"d.d.S.- - O J.q q q ~ ! T.] s / / R u -.U.;.V.x [ M.| | 1 W.z A A u.u.5 7 9 X a b Y ,.e E F 2.` G X.).j j ~.J J c.6.p.Y.y.Z.R.`.",
"n = - 7.p J.q /. +) ~ { q.] ^ / t ( ( T .+w [ [ [ } h.1 2 N.3 >.u.5 7 ++C X 0 @+b ,.e F '.f #+g G ).).k $+..+.+.{.6.y.y.%+H.`.&+",
"N - 7.O p q ) ! e.~ q.T.^ _.t R R S .+;.V.[ [ | U | h.1 z 4 A >.5 8 C *+|.a b b c c e '.'.2.G 3.).I k =+k -+c.;+p.y.y.H.H.R.>+,+",
"o 7.p p q /./.Q ~ q.q./ K.t R ( -.;.T w 9.'+)+U !+h.2 ~+4 A >.6 5 C C k.a b Z ,.c F F f g {+H i j j ~. .+.+.6.Y.z.z.]+R.`.>+^+^+",
"O O &.q q ) ! r /+8.] / (+R R S v U.V.<._+)+| } 1 1 :+~+A u.5 7 j.C <+a b Y c e d [+f g H 3.).j !.k 5.-++.+.p.6.}+y.R.|+|+1+^+2+",
"7.p q q  +e.r 8.T.(./ / t ( _ .+w w [ [ 3+U !+W 4+4 5+A A 6 5 6+|.0 a b ,.c e d E ` g g 3.i 7+j k ..+.+.8+6.z.y.Z.H.`.`.1+^+9+2+",
"^.p ) ) ~ r /+8.] ^ K.D.t _ T ;.V.<.V U | } 1 3 3 ~+A B u.7 8 C X k.b Y c e 0+'.f g g i i j !.k J J J {.6.a+y.Z.H.`.|+^+&+b+c+2+",
", ' *.! r q.T.^ / / ( ( -.v .+w < [ V | } 1 z z A 4 u.7 j.7 a.X 0 a Y e d e '.2.` G G 3.).w.~.k J {.6.6.a+y.]+H.|+|+^+^+d+2+2+e+",
"q ) ! ~ { T.] K./ t ( -.T ;.w < [ )+f+| h.2 :+3 B u.5 7 C 9 9 g+b ,.,.e e 2.f {+g g ).j k k h++.{.6.p.Y.y.i+`.`.|+j+d+c+2+k+l+m+",
"q Q ~ ~ T.] K./ R ( S _ w w w '+U U n+h.z z ~+A A 5 8 8 9 X k.a b ,.e E '.2.f G H i I k ~.....c.8+p.z.y.]+H.`.|+>+^+9+2+k+o+e+p+",
"Q r q.T.^ / t q+( _ ;.;.r+x s+'+| } W 2 z ~+A 6 5 8 C 9 C a b b Z 1.F '.f ` t+3.i I w.~.J J c.+.p.y.}+H.Z.`.|+&+^+d+c+u+e+e+v+w+",
"~ 8.T.^ / t R ( S v .+r+9.[ U } } W z 3 ~+B x+5 5 C ++X a b Z c e F '.'.g g y+i j j ~...5.c.{.p.p.]+H.z+A+B+1+^+C+2+2+o+e+v+D+E+",
"~ ] ^ (./ R ( _ v w F+[ V M.| } 1 W.3 3 B >.G+7 ++9 |.k.b Z e e E F ` g f i H j !.k k +.+.8+p.z.p.H.]+|+&+&+^+2+k+k+m+m+v+E+E+H+",
"] ] / t R ( -.T :.I+J+K+L+M+N+O+P+Q+R+S+A 6 T+U+V+W+W+X+,.c c F '.` f G 3.i Y+Y+Z+`+ @{.{..@+@+@@@#@#@#@$@%@$@$@&@&@*@v+w+E+H+=@",
"] =./ ( R _ T -@;@M+>@M+M+M+M+M+M+,@M+'@u.O.)@M+M+M+,@!@,.e F F ` g G H ).~@{@M+M+,@]@c.6.^@M+M+M+M+M+M+M+M+M+M+M+M+/@w+E+H+(@_@",
"=.K.t R :@U.;.<@>@M+M+M+M+M+M+M+M+M+M+[@5 8 C }@,@M+M+{@|@d '.'.g G 3.i ).1@>@M+M+M+2@p.a+^@M+M+M+M+M+M+M+M+M+M+M+M+3@w+4@(@5@5@",
"/ D.S S T T 6@M+M+M+,@M+7@8@9@0@a@M+M+M+j.C X b@'@M+M+M+c@'.f g G H ).).d@M+M+M+M+e@p.p.y.f@M+M+M+M+M+M+M+M+M+M+M+M+g@(@h@_@5@i@",
"t ( ( v U.w j@M+M+M+k@} 1 z 4 A A ++l@m@a.0 a b n@M+M+M+n@f ` H G ).!.!.o@M+M+M+M+p@z.q@H.^@M+M+M+M+r@d+k+m+e+p+D+w+4@(@s@_@t@u@",
"-.S ;.:.< x v@M+M+M+w@W.2 4 A B 6 7 7 C 0 a a ,.x@,@M+M+y@z@g H ).).!.k A@B@M+M+,@C@y.]+H.f@M+M+M+M+D@k+m+e+p+w+E+H+=@_@5@E@F@G@",
"v _ :.;.9.[ H@M+M+M+I@3 5+A >.6 J@8 X 9 X 0 c e K@M+M+M+,@L@i i v.k h+M@N@M+M+,@O@a+]+z+>+f@M+M+M+M+P@o+m+v+w+E+(@=@s@s@u@F@Q@R@",
"v ;.w [ 9.)+S@,@M+M+,@'@T@U@V@8 8 C 9 0 b ,.,.1.F W@M+M+M+,@X@I !.k ~.Y@M+M+M+M+Z@]+R.R.B+`@M+M+M+M+ #m+p+.#w+=@(@s@5@t@F@Q@+#@#",
"w w [ V V [.##M+M+M+M+M+,@[@M+>@$#%#a a Z c e F '.&#N@M+M+M+*#w.k 5.J =#,@M+M+=#H.H.`.>+^+`@M+M+M+M+M+M+M+M+M+M+M+>@-#F@Q@G@+#;#",
"S w [ '+| y W >#M+,@M+M+M+M+M+M+,@M+,#'#c )#F '.f y+[@M+M+,@,@~...J !#N@M+M+,@~#R.{#&+&+^+]#M+M+M+M+M+M+M+M+M+M+M+,@F@+#+#R@^#/#",
"<.[ '+[.(#1 W.z _#M+[@:#M+M+M+M+M+M+B@M+<#F '.f f H [#,@M+M+'@}#J c.|#M+M+M+[@1#R.|+|+b+2+]#M+M+M+M+M+M+M+M+M+M+M+,@Q@+#@#2#2#3#",
"[ U | } h.0.2 3 A u.4#5#6#,@M+,@M+M+M+[@7#F ` f G 3.8#M+M+M+[@9#6.m.,@M+M+M+0#`.>+,+^+^+a#]#M+M+M+M+b#c#d#d#e#f#f#g#+#@#2#/#h#3#",
"| U } 1 z 3 3 A u.5 5 8 9 *+i#j#M+M+M+M+k#f g G G y+I n@M+M+:#,@{.l#M+M+M+M+m#1+>+^+C+2+2+]#M+M+M+M+n#(@_@t@5@Q@Q@G@@#o#p#q#r#s#",
")+h.1 2 3 z A A u.7 ++9 X b b ,.t#M+M+M+[@g G 3.i 7+!.u#,@M+M+y@v#[@,@M+M+{@w#,+^+2+2+u+e+]#M+M+M+M+x#s@t@u@Q@Q@R@R@@#/#3#3#y#z#",
"} 1 W.z 4 A A#u.j.8 9 9 0 b Z ,.B#M+M+M+H@G G ).).!.C#D#N@M+M+[@E#B@M+M+,@F#|+^+9+2+l+m+G#]#M+M+M+M+H#_@F@i@G@Q@+#2#p#/#3#s#y#I#",
"h.z J#4 4 6 M+k#K#L#|.M#b ,.l.e N#M+M+M+O#3.P#).k C#J +.Q#M+M+M+M+M+M+M+M+R#&+c+2+2+m+e+v+]#M+M+M+M+S#-#F@+#+#T#@#U#3#3#V#s#W#W#",
"W z 5+4 u.5 y@M+M+M+X#Y#Z#`# $,@,@M+M+M+.$).I k k J +.+.+$M+M+M+M+M+M+M+@$^+d+2+o+o+e+#$p+]#M+M+M+M+M+M+M+M+M+M+M+M+M+$$s#%$W#&$",
"2 A >.6 6 5 y@M+M+M+M+M+M+M+M+M+M+M+:#*$H j k ~.J 5.m.8+}+M+M+M+M+M+M+,@=$c+2+k+-$e+;$w+E+]#M+M+M+M+M+M+M+M+M+M+M+M+M+z#I#W#>$,$",
"4 A >.5 7 ++'$M+M+>@M+M+M+M+M+M+,@M+)$!$j j ~.~.J c.{.p.p.~$,@M+M+M+M+,@{$d+o+m+v+p+w+E+(@]#M+M+M+M+M+M+M+M+M+M+M+M+M+I#I#&$&$]$",
"A 6 u.j.j.++X ^$/$($_$Y@:$>@<$[$}$|$).j k k ..+.+.8+o.Y.z.1$#@#@#@%@$@$@2+2+l+v+p+D+E+(@=@2$e#e#e#f#3$4$4$4$5$6$6$6$7$W#>$&$,$8$",
"A u.J@6+C 0 M#0 Z ,.e F 2.` '.G G i ).9$~.J J c.8+Y.p.]+H.H.R.&+>+9+9+c+k+0$v+v+w+E+E+a$_@t@u@F@b$+#@#2#/#p#3#y#s#z#I#&$&$,$c$8$",
"5 7 7 a.9 X b Z c c E F '.` H H ).).k ~.5...+.6.6.z.]+H.H.`.|+^+^+b+d+l+0$o+v+p+E+H+=@=@5@-#F@G@+#+#2#2#p#3#s#z#W#I#&$d$e$f$8$g$",
"i.C X X a Y Z 1.c d '.f f G G ).!.!.~.5.J h$6.6.p.]+]+H.`.>+&+^+d+k+i$l+e+v+p+w+(@=@=@s@-#F@Q@j$@#2#^#3#3#3#z#I#W#W#&$f$k$l$8$m$",
"C 9 a k.Z b ,.e d f 2.f G 3.4.).!.~.h+J +.6.6.y.y.H.Z.`.|+&+9+2+n$k+l+e+w+D+E+(@(@5@5@t@F@Q@G@T#o$p#p#3#s#s#I#W#p$d$,$f$l$8$m$q$",
"X X b b D c c E '.[+f G i ).).j k ..+.+.6.p.y.q@r$R.`.`.1+9+d+9+u+o+v+v+w+E+h@h@_@s@t@Q@G@+#+#@#2#p#3#r#s#s$I#t$&$,$f$g$m$8$u$v$",
"9 b g+,.l.E w$F 2.g g i ).I !.k ~.+.c.8+6.y.y.y.H.`.|+&+9+9+k+k+o+e+v+w+E+E+s@=@t@u@x$Q@R@@#@#U#3#3#r#s#y$z$W#d$,$f$8$8$q$q$q$A$",
"X Y Z c E d '.f #+g i y+7+!.k ..+.+.8+6.z.q@Z.`.`.1+^+&+d+2+l+o+e+p+E+E+H+=@s@_@E@Q@G@+#o$o#^#/#r#V#s#W#W#&$&$,$B$g$g$v$v$A$C$A$",
"Y Z 1.c F '.` g g i H i j ~.5...+.c.6.p.]+y.z+`.1+>+^+C+2+k+k+e+;$.#E+E+=@s@t@u@F@Q@D$@#2#2#h#3#E$z#s#F$&$d$,$l$B$m$v$q$A$A$G$H$",
"b c e E F f f H 3.).!.k C#5.J +.{.6.a+]+]+H.`.>+>+^+9+n$2+e+v+p+D+E+4@(@=@5@u@i@G@G@+#@#3#q#r#y#s#%$I#W#,$d$f$k$k$I$q$A$A$J$H$K$",
"c c E f ` f G i ).!.9$~.J ..c.c.6.p.z.]+]+A+`.&+9+d+2+k+m+m+p+D+w+H+(@L$_@t@F@G@j$+#;#^#U#V#y#z#I#W#M$,$]$B$k$8$v$q$u$C$J$N$K$O$",
"c F F 2.g G 3.H v.w.~. .J {.c.6.P$y.]+H.`.|+Q$&+2+2+k+m+;$v+v+R$a$(@s@t@t@i@Q@G@+#2#2#q#3#S$s#z#W#&$&$T$f$c$8$m$v$A$A$N$U$H$V$W$",
"E F '.f b.i i j !.k J X$x.c.6.a+]+Z.]+|+`.&+&+9+2+o+k+Y$p+w+E+E+=@=@t@t@Q@G@j$Z$;#2#q#p#s#z#%$W#p$d$f$B$c$m$v$q$A$C$H$H$`$V$W$ %",
"'.f ` H G ).I j k 5.+.c.c.o.p.]+y.`.`.>+&+b+^+2+2+u+m+v+D+E+4@s@.%t@u@i@G@R@+#@#q#p#q#3#s#I#W#p$]$d$c$g$8$v$v$q$C$C$H$+%V$W$ %@%",
"'.g G H i j k k 5.-+c.c.Y.z.y.]+z+R.B+>+C+9+c+2+o+v+D+p+E+H+(@#%t@u@Q@G@G@+#@#p#U#3#s#y#y$I#p$d$,$f$g$8$q$$%A$A$G$H$U$`$%%&%*%=%",
"g b.G i ).!.~.-++.J {.6.y.y.Z.-%`.|+&+^+d+d+2+m+e+e+.#E+=@(@s@_@u@Q@j$Q@@#o#2#p#3#y#s#s$p$W#d$&$f$8$8$;%q$A$C$A$H$V$V$W$ %@%=%>%",
"G H i !.w.~.k ,%+.8+6.q@z.-%R.`.&+1+^+b+k+o+l+m+p+w+w+H+=@s@5@t@F@F@+#R@@#p#2#y#s#s#z#W#&$&$&$f$B$8$m$'%C$C$)%U$!%V$%% % %=%>%~%",
"3.).!.j k J J m.c.a+p.a+H.H.`.1+,+9+d+k+i$m+m+v+p+E+4@=@=@_@t@F@G@R@R@2#2#^#3#y#s#W#W#&$]$d$f$f$8$m$'%'%C$G$!%{%V$]%&%^%=%/%/%(%",
"i j j  ...J c.m.{.z.y.H.z+|+|+j+^+C+2+o+m+Y$_%D+E+H+(@:%t@F@Q@F@G@T#@#^#p#3#y#s#%$W#>$d$d$c$c$8$<%v$A$A$[%H$U$`$]%}% %@%/%|%(%1%",
").!.k ~.J m.{.8+a+z.Z.H.`.>+1+d+^+d+k+m+e+e+p+w+2%h@s@5@u@Q@Q@R@+#2#/#3#3#V#y#I#I#W#d$f$f$k$8$m$q$q$A$G$H$`$V$}%&%3%=%=%/%1%4%5%",
"!.k 5.J +.6.6.p.]+]+`.|+|+1+^+2+2+m+m+e+v+D+4@2%s@=@5@-#Q@G@Q@+#R@p#3#r#y#s#s#W#&$6%,$f$8$8$v$v$q$A$N$H$V$V$V$ % %^%/%>%(%1%7%5%",
"..J ..c.{.p.a+8%]+9%`.|+&+^+c+c+l+m+m+p+p+E+H+=@.%t@t@F@F@R@@#o#/#q#r#E$s#I#>$&$d$e$c$8$8$$%0%u$J$G$H$+%`$ % % %=%>%|%|%4%a%b%c%"};
